<svg xmlns="http://www.w3.org/2000/svg" viewBox="0 0 64 64">
  <defs>
    <linearGradient id="stone" x1="0" y1="0" x2="1" y2="1">
      <stop offset="0%" stop-color="#24303a" />
      <stop offset="100%" stop-color="#1b252d" />
    </linearGradient>
    <linearGradient id="wave" x1="0" y1="0" x2="1" y2="0">
      <stop offset="0%" stop-color="#8ea3b1" />
      <stop offset="100%" stop-color="#67879b" />
    </linearGradient>
  </defs>
  <rect width="64" height="64" rx="14" fill="url(#stone)" />
  <path
    d="M11 39c4.8-2.3 9.7-2.3 14.5 0 4.8 2.4 9.7 2.4 14.5 0 4.8-2.3 9.7-2.3 14.5 0"
    fill="none"
    stroke="url(#wave)"
    stroke-width="3.2"
    stroke-linecap="round"
  />
  <path
    d="M11 47c4.8-2.3 9.7-2.3 14.5 0 4.8 2.4 9.7 2.4 14.5 0 4.8-2.3 9.7-2.3 14.5 0"
    fill="none"
    stroke="#96acb9"
    stroke-width="2.3"
    stroke-linecap="round"
    opacity="0.95"
  />
  <circle cx="32" cy="24" r="11" fill="none" stroke="#d6e0e6" stroke-width="2.6" />
  <path
    d="M26.2 19.2h6.9c3.5 0 5.8 1.9 5.8 4.8 0 2.2-1.3 3.8-3.5 4.4l4.1 5h-4.4l-3.6-4.5h-1.6v4.5h-3.7V19.2zm3.7 6.8h3c1.3 0 2.1-.7 2.1-1.8s-.8-1.8-2.1-1.8h-3V26z"
    fill="#d6e0e6"
  />
</svg>
